<?xml version="1.0" encoding="utf-8"?>
<!-- Generator: Adobe Illustrator 23.0.2, SVG Export Plug-In . SVG Version: 6.00 Build 0)  -->
<svg version="1.1" id="Layer_1" xmlns="http://www.w3.org/2000/svg" xmlns:xlink="http://www.w3.org/1999/xlink" x="0px" y="0px"
	 viewBox="0 0 384.01 512.02" style="enable-background:new 0 0 384.01 512.02;" xml:space="preserve">
<style type="text/css">
	.st0{fill:#FFFFFF;}
</style>
<g>
	<path class="st0" d="M357.77,281.61h7.04c10.6,0,19.2-8.6,19.2-19.2c0-10.6-8.6-19.2-19.2-19.2H294.1
		c10.23-6.51,18.65-15.52,24.46-26.18c2.07-3.92,1.91-8.64-0.41-12.42c-2.31-3.86-6.49-6.22-11-6.2h-50.04
		c13.05-7.83,23.91-18.84,31.57-32h31.32c17.67,0,32-14.32,32-32c0-17.67-14.33-32-32-32h-19.2V96c0-10.61-8.6-19.2-19.2-19.2H102.4
		c-10.6,0-19.2,8.59-19.2,19.2v25.6c0.04,31.5,16.63,60.66,43.69,76.8H76.86c-4.5-0.02-8.68,2.34-11,6.2
		c-2.32,3.78-2.48,8.5-0.41,12.42c5.81,10.65,14.23,19.66,24.46,26.18H70.4c-19.54,0.01-38.21,8.14-51.52,22.45
		c-13.32,14.3-20.09,33.5-18.7,53c3.3,37.3,34.77,65.78,72.22,65.36h292.41c10.6,0,19.2-8.6,19.2-19.2c0-10.61-8.6-19.2-19.2-19.2
		h-7.04C350.12,324.96,350.12,302.25,357.77,281.61L357.77,281.61z M320.01,115.2c10.61,0,19.2,8.6,19.2,19.2
		c0,10.61-8.59,19.2-19.2,19.2H294.8c3.96-10.21,6-21.06,6.01-32v-6.4H320.01z M96.01,121.61V96c0-3.54,2.87-6.4,6.4-6.4h179.2
		c3.53,0,6.4,2.86,6.4,6.4v25.6c-0.05,42.39-34.4,76.75-76.8,76.8h-38.4C130.41,198.36,96.05,164,96.01,121.61L96.01,121.61z
		 M76.86,211.2l95.11-0.04c0.28,0,0.56,0.04,0.84,0.04h38.4c0.4,0,0.79-0.06,1.2-0.06l94.8-0.04c-11.81,20.5-33.95,32.84-57.6,32.1
		H134.4C110.8,243.95,88.69,231.65,76.86,211.2L76.86,211.2z M371.21,364.81c0,3.54-2.86,6.4-6.4,6.4H72.4
		c-30.74,0.46-56.65-22.84-59.45-53.45c-1.15-15.96,4.38-31.67,15.28-43.39C39.13,262.65,54.41,256,70.4,256h294.4
		c3.54,0,6.4,2.87,6.4,6.4c0,3.54-2.86,6.4-6.4,6.4H70.4c-24.28,0.02-44.14,19.36-44.8,43.64c-0.25,11.84,4.33,23.27,12.69,31.66
		c8.87,9.1,21.02,14.25,33.72,14.3h292.79C368.34,358.4,371.21,361.27,371.21,364.81L371.21,364.81z M72.02,345.61
		c-9.25-0.05-18.09-3.81-24.54-10.44c-5.94-5.92-9.21-14-9.07-22.39c0.49-17.34,14.66-31.14,32-31.17h273.64
		c-6.46,20.84-6.46,43.15,0,64H72.02z M72.02,345.61"/>
	<path class="st0" d="M70.4,307.2h153.6c3.54,0,6.4-2.86,6.4-6.4s-2.86-6.4-6.4-6.4H70.4c-3.53,0-6.4,2.87-6.4,6.4
		S66.87,307.2,70.4,307.2L70.4,307.2z M70.4,307.2"/>
	<path class="st0" d="M313.61,294.4h-64c-3.54,0-6.4,2.87-6.4,6.4s2.87,6.4,6.4,6.4h64c3.53,0,6.4-2.86,6.4-6.4
		S317.14,294.4,313.61,294.4L313.61,294.4z M313.61,294.4"/>
	<path class="st0" d="M313.61,320h-153.6c-3.54,0-6.4,2.87-6.4,6.4c0,3.54,2.86,6.4,6.4,6.4h153.6c3.53,0,6.4-2.87,6.4-6.4
		C320.01,322.87,317.14,320,313.61,320L313.61,320z M313.61,320"/>
	<path class="st0" d="M134.4,320h-64c-3.53,0-6.4,2.87-6.4,6.4c0,3.54,2.87,6.4,6.4,6.4h64c3.54,0,6.4-2.87,6.4-6.4
		C140.81,322.87,137.94,320,134.4,320L134.4,320z M134.4,320"/>
	<g>
		<path class="st0" d="M172.81,172.81c-28.27-0.03-51.17-22.94-51.2-51.2c0-3.54-2.87-6.4-6.4-6.4c-3.53,0-6.4,2.87-6.4,6.4
			c0.04,35.33,28.67,63.96,64,64c3.54,0,6.4-2.87,6.4-6.4S176.34,172.81,172.81,172.81L172.81,172.81z M172.81,172.81"/>
		<path class="st0" d="M144.24,50.21c5.53-3.02,9.08-8.71,9.36-15.01c-0.3-6.33-3.88-12.05-9.46-15.07
			c-2.06-1.31-3.34-2.85-3.34-4.13s1.28-2.84,3.34-4.15c1.94-1.21,3.09-3.37,3.01-5.66c-0.07-2.29-1.37-4.36-3.39-5.44
			c-2.02-1.08-4.46-1-6.41,0.22C131.83,4,128.28,9.7,128.01,16c0.29,6.33,3.88,12.05,9.46,15.07c2.09,1.31,3.34,2.86,3.34,4.15
			c0,1.29-1.28,2.84-3.44,4.21c-5.52,3.01-9.07,8.69-9.36,14.97c0.28,6.3,3.83,11.99,9.36,15.01c3,1.88,6.96,0.95,8.83-2.05
			c1.87-3,0.95-6.96-2.05-8.83c-2.06-1.26-3.34-2.82-3.34-4.13C140.81,53.09,142.08,51.58,144.24,50.21L144.24,50.21z M144.24,50.21
			"/>
		<path class="st0" d="M246.64,50.21c5.53-3.02,9.08-8.71,9.36-15.01c-0.29-6.33-3.88-12.05-9.46-15.07
			c-2.06-1.31-3.34-2.85-3.34-4.13s1.28-2.84,3.34-4.15c3.01-1.87,3.93-5.83,2.05-8.83c-1.88-3.01-5.82-3.93-8.83-2.05
			C234.23,4,230.68,9.7,230.4,16c0.3,6.33,3.88,12.05,9.46,15.07c2.09,1.31,3.34,2.86,3.34,4.15c0,1.29-1.28,2.84-3.44,4.21
			c-5.52,3.01-9.07,8.69-9.36,14.97c0.28,6.3,3.83,11.99,9.36,15.01c1.95,1.21,4.39,1.29,6.41,0.21c2.02-1.07,3.31-3.15,3.39-5.44
			c0.07-2.29-1.08-4.45-3.02-5.66c-2.06-1.26-3.34-2.82-3.34-4.13C243.21,53.09,244.49,51.58,246.64,50.21L246.64,50.21z
			 M246.64,50.21"/>
		<path class="st0" d="M195.44,50.21c5.53-3.02,9.08-8.71,9.36-15.01c-0.29-6.33-3.88-12.05-9.46-15.07
			c-2.06-1.31-3.34-2.85-3.34-4.13s1.28-2.84,3.34-4.15c1.95-1.21,3.09-3.37,3.02-5.66c-0.08-2.29-1.37-4.36-3.39-5.44
			c-2.02-1.08-4.46-1-6.41,0.22C183.03,4,179.48,9.7,179.21,16c0.29,6.33,3.88,12.05,9.46,15.07c2.09,1.31,3.34,2.86,3.34,4.15
			c0,1.29-1.28,2.84-3.44,4.21c-5.52,3.01-9.07,8.69-9.36,14.97c0.28,6.3,3.83,11.99,9.36,15.01c1.95,1.21,4.39,1.29,6.41,0.21
			c2.02-1.07,3.31-3.15,3.39-5.44c0.08-2.29-1.07-4.45-3.02-5.66c-2.06-1.26-3.34-2.82-3.34-4.13
			C192.01,53.09,193.29,51.58,195.44,50.21L195.44,50.21z M195.44,50.21"/>
	</g>
</g>
<g>
	<path class="st0" d="M89.91,371.21H19.2c-10.6,0-19.2,8.6-19.2,19.2c0,10.61,8.6,19.2,19.2,19.2h7.04l0,0
		c7.65,20.65,7.65,43.35,0,64H19.2c-10.6,0-19.2,8.59-19.2,19.2c0,10.6,8.6,19.2,19.2,19.2h292.41
		c37.45,0.43,68.92-28.05,72.22-65.35c1.39-19.5-5.38-38.7-18.7-53c-13.32-14.31-31.98-22.44-51.52-22.45h-19.51 M249.6,371.21
		H134.4 M12.8,492.81c0-3.54,2.86-6.4,6.4-6.4h292.79c12.7-0.05,24.85-5.2,33.72-14.3c8.36-8.39,12.94-19.82,12.69-31.66
		c-0.66-24.28-20.51-43.62-44.8-43.64H19.2c-3.53,0-6.4-2.87-6.4-6.4c0-3.53,2.86-6.4,6.4-6.4h294.4c16,0,31.28,6.65,42.17,18.36
		c10.9,11.71,16.43,27.43,15.28,43.39c-2.8,30.62-28.71,53.91-59.45,53.45H19.2C15.66,499.21,12.8,496.35,12.8,492.81L12.8,492.81z
		 M39.96,473.61c6.46-20.85,6.46-43.16,0-64H313.6c17.34,0.03,31.52,13.83,32,31.17c0.14,8.39-3.13,16.47-9.07,22.39
		c-6.45,6.63-15.29,10.39-24.54,10.44H39.96z M311.99,473.61"/>
	<path class="st0" d="M313.6,435.21c3.53,0,6.4-2.86,6.4-6.4s-2.87-6.4-6.4-6.4H160c-3.54,0-6.4,2.87-6.4,6.4s2.86,6.4,6.4,6.4
		H313.6L313.6,435.21z M313.6,435.21"/>
	<path class="st0" d="M70.4,422.41c-3.53,0-6.4,2.87-6.4,6.4s2.87,6.4,6.4,6.4h64c3.54,0,6.4-2.86,6.4-6.4s-2.87-6.4-6.4-6.4H70.4
		L70.4,422.41z M70.4,422.41"/>
	<path class="st0" d="M70.4,448.01c-3.53,0-6.4,2.87-6.4,6.4c0,3.54,2.87,6.4,6.4,6.4H224c3.53,0,6.4-2.87,6.4-6.4
		c0-3.53-2.86-6.4-6.4-6.4H70.4L70.4,448.01z M70.4,448.01"/>
	<path class="st0" d="M249.6,448.01c-3.54,0-6.4,2.87-6.4,6.4c0,3.54,2.87,6.4,6.4,6.4h64c3.53,0,6.4-2.87,6.4-6.4
		c0-3.53-2.87-6.4-6.4-6.4H249.6L249.6,448.01z M249.6,448.01"/>
</g>
</svg>
