<?xml version="1.0" encoding="utf-8"?>
<!-- Generator: Adobe Illustrator 23.0.2, SVG Export Plug-In . SVG Version: 6.00 Build 0)  -->
<svg version="1.1" id="Layer_1" xmlns="http://www.w3.org/2000/svg" xmlns:xlink="http://www.w3.org/1999/xlink" x="0px" y="0px"
	 viewBox="0 0 372.92 508.53" style="enable-background:new 0 0 372.92 508.53;" xml:space="preserve">
<style type="text/css">
	.st0{fill:#FFFFFF;}
</style>
<g>
	<path class="st0" d="M59.33,508.53h279.69c18.73,0,33.9-15.18,33.9-33.9V33.9c0-18.73-15.18-33.9-33.9-33.9H59.33
		C26.58,0.04,0.04,26.58,0,59.33V449.2C0.04,481.95,26.58,508.49,59.33,508.53L59.33,508.53z M355.97,33.9v339.02
		c0,9.36-7.59,16.95-16.95,16.95H67.8V16.95h271.22C348.38,16.95,355.97,24.54,355.97,33.9L355.97,33.9z M16.95,59.33
		c0.03-20.13,14.18-37.47,33.9-41.53v372.75c-12.88,1.85-24.79,7.88-33.9,17.16V59.33z M59.33,406.82h279.69
		c5.97-0.04,11.82-1.66,16.95-4.71v21.66H59.33c-4.68,0-8.47,3.8-8.47,8.47c0,4.68,3.79,8.48,8.47,8.48h296.64v16.95H59.33
		c-4.68,0-8.47,3.79-8.47,8.47c0,4.68,3.79,8.47,8.47,8.47h296.64c0,9.36-7.59,16.95-16.95,16.95H59.33
		c-23.4,0-42.38-18.97-42.38-42.38C16.95,425.8,35.93,406.82,59.33,406.82L59.33,406.82z M59.33,406.82"/>
	<path class="st0" d="M110.18,330.55h203.41c9.36,0,16.95-7.59,16.95-16.95v-25.43c0-9.36-7.59-16.95-16.95-16.95H110.18
		c-9.36,0-16.95,7.59-16.95,16.95v25.43C93.23,322.96,100.82,330.55,110.18,330.55L110.18,330.55z M110.18,288.17h203.41v25.43
		H110.18V288.17z M110.18,288.17"/>
	<path class="st0" d="M204.16,243.96c4.87,2.44,10.6,2.44,15.47,0c75.61-38.31,102.44-92.97,102.44-128.13
		c0-36.43-26.06-64.98-59.32-64.98c-19.07-0.03-37.36,7.53-50.86,21c-13.49-13.48-31.78-21.03-50.85-21
		c-33.27,0-59.33,28.55-59.33,64.98C101.71,150.99,128.54,205.65,204.16,243.96L204.16,243.96z M161.04,67.8
		c17.2-0.02,33.42,8.01,43.84,21.71c1.58,2.33,4.21,3.72,7.01,3.72c2.8,0.01,5.42-1.38,7-3.69c10.41-13.7,26.64-21.75,43.85-21.73
		c24.16,0,42.38,20.65,42.38,48.03c0,30.36-24.4,78.17-93.3,113c-68.77-34.84-93.16-82.64-93.16-113
		C118.66,88.45,136.87,67.8,161.04,67.8L161.04,67.8z M161.04,67.8"/>
	<path class="st0" d="M169.56,101.71c3.03-0.01,5.82-1.64,7.33-4.26c1.51-2.62,1.5-5.86-0.02-8.47c-1.53-2.62-4.33-4.23-7.36-4.22
		c-9.07-0.27-17.85,3.22-24.27,9.64c-6.41,6.41-9.9,15.19-9.63,24.27c0,4.68,3.79,8.47,8.47,8.47s8.47-3.8,8.47-8.47
		c-0.29-4.59,1.41-9.08,4.67-12.33C160.48,103.09,164.97,101.4,169.56,101.71L169.56,101.71z M169.56,101.71"/>
</g>
</svg>
