<?xml version="1.0" encoding="utf-8"?>
<!-- Generator: Adobe Illustrator 23.0.2, SVG Export Plug-In . SVG Version: 6.00 Build 0)  -->
<svg version="1.1" id="Layer_1" xmlns="http://www.w3.org/2000/svg" xmlns:xlink="http://www.w3.org/1999/xlink" x="0px" y="0px"
	 viewBox="0 0 373.1 446.36" style="enable-background:new 0 0 373.1 446.36;" xml:space="preserve">
<style type="text/css">
	.st0{clip-path:url(#SVGID_1_);fill:#FFFFFF;}
	.st1{fill:#FFFFFF;}
</style>
<g>
	<g>
		<defs>
			<rect id="SVGID_3_" width="373.1" height="446.33"/>
		</defs>
		<clipPath id="SVGID_1_">
			<use xlink:href="#SVGID_3_"  style="overflow:visible;"/>
		</clipPath>
		<path class="st0" d="M350.79,0h-305C21.15,0.02,1.19,19.99,1.16,44.63v327.31c-0.02,1.46,0.04,2.91,0.18,4.36
			c2.85,23.18,22.67,40.52,46.02,40.27h28.2v14.88c-0.04,5.37,2.86,10.34,7.55,12.95c4.65,2.67,10.4,2.6,14.98-0.2l22.1-13.27
			l22.09,13.26c4.59,2.76,10.32,2.83,14.99,0.2c4.66-2.64,7.55-7.58,7.56-12.94v-14.88h185.97c12.32,0,22.32-9.99,22.32-22.32V22.32
			C373.1,9.99,363.11,0,350.79,0L350.79,0z M149.94,431.45l-22.11-13.26c-4.71-2.82-10.59-2.82-15.31,0l-22.1,13.26v-52.07h59.51
			V431.45z M164.82,379.38h22.32c4.11,0,7.44-3.33,7.44-7.44s-3.33-7.44-7.44-7.44H60.67c-4.11,0-7.44,3.33-7.44,7.44
			s3.33,7.44,7.44,7.44h14.88v22.32h-28.2c-15.77,0.29-29.23-11.33-31.24-26.98c-0.08-0.92-0.1-1.85-0.07-2.77
			c0.06-16.4,13.35-29.69,29.75-29.76h275.24c-9.93,18.6-9.93,40.92,0,59.52H164.82V379.38z M350.79,401.7h-7.44
			c-7.02,0-14.87-12.73-14.87-29.76s7.85-29.76,14.87-29.76h7.44c2.61-0.01,5.17-0.7,7.44-1.99v54.07
			C358.23,398.37,354.9,401.7,350.79,401.7L350.79,401.7z M350.79,327.31H60.67v-7.44c0-4.11-3.33-7.44-7.44-7.44
			s-7.44,3.33-7.44,7.44v7.44c-10.99,0-21.6,4.07-29.75,11.45V44.63c0-16.43,13.32-29.75,29.75-29.75v302.04
			c0,4.11,3.33,7.44,7.44,7.44s7.44-3.33,7.44-7.44V14.88h290.12c4.11,0,7.44,3.33,7.44,7.44v290.12
			C358.01,318.24,355.3,323.66,350.79,327.31L350.79,327.31z M350.79,327.31"/>
	</g>
	<path class="st1" d="M332.08,140.15l-8.42-2.19c-2.43-8.44-5.8-16.57-10.07-24.24l4.46-7.44c3.53-5.85,2.61-13.35-2.23-18.17
		l-23.37-23.4c-4.83-4.83-12.32-5.74-18.17-2.23l-7.5,4.46c-7.69-4.25-15.83-7.61-24.28-10.01l-2.11-8.47
		c-1.65-6.63-7.61-11.28-14.44-11.28h-33.01c-6.83,0-12.79,4.65-14.44,11.28l-2.19,8.41c-8.43,2.44-16.55,5.83-24.22,10.1
		l-7.44-4.46c-5.85-3.52-13.35-2.6-18.18,2.23l-23.4,23.33c-4.84,4.82-5.76,12.32-2.23,18.17l4.46,7.51
		c-4.25,7.69-7.6,15.83-10.01,24.28l-8.44,2.11c-6.63,1.64-11.3,7.59-11.31,14.42v33.02c0,6.82,4.65,12.78,11.27,14.43l8.42,2.23
		c2.43,8.42,5.81,16.54,10.07,24.2l-4.46,7.44c-3.53,5.85-2.61,13.35,2.23,18.18l23.35,23.36c4.83,4.83,12.32,5.74,18.17,2.23
		l7.52-4.43c7.69,4.24,15.83,7.61,24.28,10l2.1,8.45c1.64,6.64,7.6,11.3,14.44,11.3h33.01c6.83,0,12.79-4.65,14.44-11.27l2.23-8.41
		c8.43-2.44,16.56-5.83,24.22-10.1l7.44,4.46c5.86,3.51,13.35,2.6,18.18-2.23l23.36-23.33c4.84-4.82,5.77-12.32,2.23-18.17
		l-4.41-7.51c4.24-7.69,7.6-15.83,10.01-24.28l8.45-2.12c6.61-1.66,11.25-7.61,11.25-14.43v-33.02
		C343.34,147.76,338.7,141.81,332.08,140.15L332.08,140.15z M328.47,187.61l-8.45,2.11c-5.15,1.32-9.2,5.28-10.66,10.39
		c-2.13,7.35-5.07,14.45-8.76,21.15c-2.58,4.64-2.51,10.31,0.2,14.88l4.46,7.44l-23.35,23.35l-7.48-4.46
		c-4.57-2.7-10.23-2.77-14.88-0.19c-6.69,3.68-13.76,6.61-21.09,8.74c-5.12,1.45-9.08,5.5-10.42,10.65l-2.09,8.45h-33.01l-2.09-8.47
		c-1.33-5.14-5.3-9.18-10.42-10.63c-7.36-2.14-14.46-5.09-21.17-8.79c-2.23-1.22-4.72-1.87-7.26-1.87c-2.67,0-5.29,0.71-7.58,2.07
		l-7.44,4.46l-23.34-23.35l4.46-7.44c2.71-4.57,2.78-10.23,0.2-14.88c-3.7-6.7-6.65-13.78-8.79-21.13
		c-1.44-5.12-5.5-9.09-10.65-10.42l-8.45-2.09v-33.02l8.44-2.11c5.15-1.33,9.2-5.28,10.66-10.39c2.13-7.35,5.07-14.44,8.76-21.14
		c2.58-4.64,2.51-10.31-0.19-14.88l-4.46-7.44l23.34-23.35l7.48,4.46c4.58,2.7,10.24,2.77,14.88,0.19
		c6.69-3.69,13.76-6.62,21.09-8.75c5.12-1.45,9.09-5.5,10.42-10.65l2.09-8.45h33.01l2.09,8.46c1.34,5.14,5.3,9.19,10.42,10.63
		c7.36,2.13,14.46,5.08,21.17,8.79c4.64,2.57,10.3,2.49,14.88-0.21l7.44-4.46l23.34,23.35l-4.46,7.44
		c-2.71,4.57-2.78,10.23-0.2,14.88c3.69,6.7,6.62,13.78,8.75,21.13c1.45,5.12,5.5,9.09,10.65,10.42l8.45,2.08V187.61z
		 M328.47,187.61"/>
	<path class="st1" d="M209.45,89.27c-40.21,0.06-74.42,29.33-80.7,69.04c-6.28,39.71,17.22,78.11,55.45,90.58l0.1,0.04
		c16.34,5.33,33.95,5.33,50.29,0l0.1-0.04c38.23-12.47,61.73-50.87,55.46-90.58C283.87,118.59,249.66,89.33,209.45,89.27
		L209.45,89.27z M194.57,236.32v-24.05c0-4.98-2.49-9.62-6.62-12.38l-15.69-10.46v-33.22h14.88v17.76
		c-0.02,5.64,3.17,10.8,8.22,13.31l7.44,3.72c4.19,2.07,9.11,2.07,13.31,0l7.44-3.72c5.06-2.5,8.25-7.66,8.23-13.31v-17.76h14.88
		v33.22l-15.69,10.46c-4.14,2.76-6.63,7.41-6.63,12.38v24.05C214.54,238.62,204.36,238.62,194.57,236.32L194.57,236.32z
		 M239.21,230.98v-18.71l15.69-10.46c4.14-2.76,6.63-7.4,6.63-12.38v-33.22c0-8.21-6.66-14.87-14.88-14.87h-14.88
		c-8.21,0-14.87,6.66-14.87,14.87v17.76l-7.44,3.72l-7.44-3.72v-17.76c0-8.21-6.66-14.87-14.88-14.87h-14.88
		c-8.22,0-14.88,6.66-14.88,14.87v33.22c0,4.98,2.49,9.62,6.63,12.38l15.69,10.46v18.71c-27.85-13.82-42.52-44.99-35.43-75.26
		c7.1-30.27,34.09-51.67,65.18-51.67s58.09,21.4,65.19,51.67C281.73,185.99,267.06,217.16,239.21,230.98L239.21,230.98z
		 M239.21,230.98"/>
</g>
</svg>
