<?xml version="1.0" encoding="utf-8"?>
<!-- Generator: Adobe Illustrator 23.0.2, SVG Export Plug-In . SVG Version: 6.00 Build 0)  -->
<svg version="1.1" id="Layer_1" xmlns="http://www.w3.org/2000/svg" xmlns:xlink="http://www.w3.org/1999/xlink" x="0px" y="0px"
	 viewBox="0 0 369.36 441.85" style="enable-background:new 0 0 369.36 441.85;" xml:space="preserve">
<style type="text/css">
	.st0{clip-path:url(#SVGID_2_);fill:#FFFFFF;}
	.st1{fill:#FFFFFF;}
</style>
<g>
	<g>
		<defs>
			<rect id="SVGID_1_" width="369.36" height="441.85"/>
		</defs>
		<clipPath id="SVGID_2_">
			<use xlink:href="#SVGID_1_"  style="overflow:visible;"/>
		</clipPath>
		<path class="st0" d="M347.27,0H45.33C20.94,0.02,1.17,19.79,1.15,44.18v324.03c-0.02,1.44,0.04,2.88,0.17,4.31
			c2.82,22.95,22.44,40.12,45.55,39.87h27.91v14.73c-0.04,5.32,2.83,10.24,7.47,12.82c4.61,2.65,10.29,2.58,14.83-0.19l21.88-13.14
			l21.88,13.12c4.55,2.73,10.21,2.8,14.83,0.19c4.62-2.61,7.47-7.5,7.48-12.81v-14.73h184.11c12.2,0,22.09-9.89,22.09-22.09V22.09
			C369.36,9.89,359.47,0,347.27,0L347.27,0z M148.44,427.12L126.55,414c-4.66-2.8-10.49-2.8-15.15,0l-21.88,13.13v-51.55h58.91
			V427.12z M163.17,375.57h22.09c4.07,0,7.36-3.29,7.36-7.36c0-4.07-3.29-7.36-7.36-7.36H60.06c-4.07,0-7.36,3.29-7.36,7.36
			c0,4.07,3.29,7.36,7.36,7.36h14.73v22.1H46.88c-15.61,0.3-28.94-11.21-30.93-26.69c-0.08-0.92-0.1-1.85-0.07-2.77
			c0.06-16.24,13.21-29.39,29.45-29.46h272.48c-9.83,18.41-9.83,40.51,0,58.92H163.17V375.57z M347.27,397.67h-7.37
			c-6.95,0-14.72-12.6-14.72-29.46c0-16.85,7.77-29.46,14.72-29.46h7.37c2.58-0.01,5.12-0.69,7.36-1.97v53.52
			C354.63,394.37,351.34,397.67,347.27,397.67L347.27,397.67z M347.27,324.03H60.06v-7.37c0-4.07-3.29-7.36-7.36-7.36
			s-7.37,3.29-7.37,7.36v7.37c-10.88-0.01-21.38,4.03-29.45,11.33V44.18c0-16.27,13.19-29.45,29.45-29.45v302.83
			c0,4.07,3.3,7.37,7.37,7.37s7.36-3.3,7.36-7.37V14.73h287.21c4.07,0,7.36,3.29,7.36,7.36V309.3
			C354.42,315.04,351.74,320.41,347.27,324.03L347.27,324.03z M347.27,324.03"/>
	</g>
	<path class="st1" d="M223.68,185.71c23.6-23.6,27.24-60.59,8.7-88.34c-18.55-27.75-54.11-38.53-84.95-25.76
		c-30.83,12.77-48.35,45.55-41.84,78.28c6.51,32.74,35.24,56.31,68.61,56.31C192.78,206.25,210.59,198.87,223.68,185.71
		L223.68,185.71z M118.98,136.24c-0.02-26.35,18.57-49.05,44.41-54.21c25.84-5.16,51.73,8.65,61.83,32.99
		c10.11,24.33,1.61,52.42-20.29,67.08c-21.9,14.65-51.1,11.8-69.75-6.82C124.78,164.95,118.95,150.89,118.98,136.24L118.98,136.24z
		 M118.98,136.24"/>
	<path class="st1" d="M251.32,249.78l44.55,44.59c10.09,10.06,26.42,10.06,36.5,0c9.96-10.11,9.96-26.35,0-36.46l-72.13-72.05
		c27.29-46.6,12.62-106.44-33.13-135.13C181.36,22.04,121.1,34.89,91.03,79.74c-30.07,44.85-19.05,105.48,24.87,136.89
		c7.66,6.06,13.16,8.13,13.16,8.13c29.97,15.3,65.65,14.36,94.77-2.5l11.04,11.05 M234.09,196.12c-33.07,33.07-86.69,33.08-119.77,0
		c-15.95-15.85-24.91-37.4-24.91-59.89c0-22.48,8.97-44.03,24.91-59.88c33.07-33.07,86.7-33.07,119.77,0
		C267.17,109.43,267.17,163.05,234.09,196.12z M321.96,283.99c-4.39,4.15-11.26,4.15-15.64,0l-59.47-59.51l-10.57-10.58
		c2.89-2.3,5.64-4.76,8.25-7.36c2.61-2.62,5.07-5.37,7.37-8.25l70.09,70.02C326.26,272.68,326.24,279.65,321.96,283.99
		L321.96,283.99z"/>
	<path class="st1" d="M321.96,283.99"/>
	<path class="st1" d="M163.17,110.46"/>
</g>
</svg>
